<svg viewBox="0 0 48 48" xmlns="http://www.w3.org/2000/svg" xmlns:xlink="http://www.w3.org/1999/xlink" width="30px" height="30px">
<defs>



 <path fill="#ffffff" id="i-2303" d="M24,1C11.318,1,1,11.318,1,24c0,12.683,10.318,23,23,23s23-10.317,23-23C47,11.318,36.682,1,24,1z M24,45 C12.42,45,3,35.579,3,24C3,12.42,12.42,3,24,3c11.578,0,21,9.42,21,21C45,35.579,35.578,45,24,45z M33.561,9.932 C30.727,8.014,27.42,7,24,7C14.625,7,7,14.626,7,24c0,3.421,1.014,6.728,2.932,9.561l0.678,1.003L34.562,10.61L33.561,9.932z M10.943,31.401C9.668,29.146,9,26.61,9,24c0-8.271,6.729-15,15-15c2.611,0,5.146,0.669,7.4,1.944L10.943,31.401z M38.068,14.439 l-0.68-1.003L13.436,37.39l1.004,0.679C17.271,39.986,20.578,41,24,41c9.373,0,17-7.626,17-17 C41,20.578,39.986,17.271,38.068,14.439z M24,39c-2.611,0-5.146-0.669-7.402-1.944l20.457-20.457C38.33,18.853,39,21.388,39,24 C39,32.271,32.271,39,24,39z"/>
</defs>

<use x="0" y="0" xlink:href="#i-2303"/>

</svg>
