<svg viewBox="0 0 48 48" xmlns="http://www.w3.org/2000/svg" xmlns:xlink="http://www.w3.org/1999/xlink" width="30px" height="30px">
<defs>



 <path fill="#ffffff" id="i-659" d="M32.652,16.832l1.414,1.414L20.438,31.875l-6.504-6.505l1.414-1.414l5.09,5.091L32.652,16.832z M46,24 c0,12.131-9.868,22-22,22C11.87,46,2,36.131,2,24S11.87,2,24,2C36.132,2,46,11.869,46,24z M44,24c0-11.028-8.972-20-20-20 C12.973,4,4,12.972,4,24s8.973,20,20,20C35.028,44,44,35.028,44,24z"/>
</defs>

<use x="0" y="0" xlink:href="#i-659"/>

</svg>
