<svg viewBox="0 0 48 48" xmlns="http://www.w3.org/2000/svg" xmlns:xlink="http://www.w3.org/1999/xlink" width="30px" height="30px">
<defs>



 <path fill="#ffffff" id="i-249" d="M33.192,16.222l-7.864,7.864l7.778,7.778l-1.414,1.415L23.914,25.5l-7.692,7.692l-1.414-1.413l7.692-7.693l-7.777-7.777 l1.414-1.416l7.777,7.779l7.864-7.863L33.192,16.222z M45,24c0,11.58-9.42,21-21,21S3,35.58,3,24C3,12.421,12.42,3,24,3 S45,12.421,45,24z M43,24c0-10.477-8.523-19-19-19S5,13.523,5,24s8.523,19,19,19S43,34.477,43,24z"/>
</defs>

<use x="0" y="0" xlink:href="#i-249"/>

</svg>
