<svg viewBox="0 0 48 48" xmlns="http://www.w3.org/2000/svg" xmlns:xlink="http://www.w3.org/1999/xlink" width="48" height="48">
<defs>



 <path fill="#e78a7b" id="i-2303" d="M24,1C11.32,1,1,11.32,1,24c0,12.68,10.32,23,23,23c12.68,0,23-10.32,23-23C47,11.32,36.68,1,24,1z M9,24 c0-8.27,6.73-15,15-15c2.61,0,5.15,0.67,7.4,1.94L10.94,31.4C9.67,29.15,9,26.61,9,24z M24,39c-2.61,0-5.15-0.67-7.4-1.94 L37.05,16.6C38.33,18.85,39,21.39,39,24C39,32.27,32.27,39,24,39z"/> 
</defs>

<use x="0" y="0" xlink:href="#i-2303"/>

</svg>