<svg viewBox="0 0 240 48" xmlns="http://www.w3.org/2000/svg" xmlns:xlink="http://www.w3.org/1999/xlink" width="240" height="48">
<defs>




 <path fill="#93d2c0" id="i-249" d="M24,3C12.42,3,3,12.42,3,24s9.42,21,21,21s21-9.42,21-21S35.58,3,24,3z M33.109,31.86l-1.42,1.42L23.91,25.5l-7.689,7.69 l-1.41-1.41l7.689-7.69l-7.779-7.78l1.42-1.42l7.77,7.78l7.869-7.86l1.41,1.41l-7.859,7.87L33.109,31.86z"/> 
 <path fill="#93d2c0" id="i-659" d="M24,2C11.869,2,2,11.869,2,24s9.869,22,22,22s22-9.869,22-22S36.131,2,24,2z M20.438,31.875l-6.504-6.505l1.414-1.414 l5.09,5.091l12.215-12.215l1.414,1.414L20.438,31.875z"/> 
 <path fill="#93d2c0" id="i-2303" d="M24,1C11.32,1,1,11.32,1,24c0,12.68,10.32,23,23,23c12.68,0,23-10.32,23-23C47,11.32,36.68,1,24,1z M9,24 c0-8.27,6.73-15,15-15c2.61,0,5.15,0.67,7.4,1.94L10.94,31.4C9.67,29.15,9,26.61,9,24z M24,39c-2.61,0-5.15-0.67-7.4-1.94 L37.05,16.6C38.33,18.85,39,21.39,39,24C39,32.27,32.27,39,24,39z"/> 

</defs>
<use x="0" y="0" xlink:href="#i-249" /><use x="48" y="0" xlink:href="#i-659" /><use x="96" y="0" xlink:href="#i-2303" />
</svg>